<svg xmlns="http://www.w3.org/2000/svg" width="3397.576" height="1860.24" viewBox="0 0 3397.576 1860.24">
  <g id="Grupo_13" data-name="Grupo 13" transform="translate(-174 -35)">
    <path id="Caminho_81" data-name="Caminho 81" d="M112.962,255.395,42.938,96.85,0,316.17H31.835L53.777,192.906l58.663,132.648,60.368-132.519L192.493,316.17h31.584L185.494,96.85Z" transform="translate(174 596.262)" fill="#fff"/>
    <path id="Caminho_82" data-name="Caminho 82" d="M147.807,118.782v39.5q-10.172-12.415-18.231-17.042a35.574,35.574,0,0,0-18.632-4.757q-16.777,0-27.874,11.762t-11.1,29.464q0,18.1,10.7,29.722,10.825,11.63,27.609,11.626a37.766,37.766,0,0,0,18.9-4.621q7.92-4.5,18.625-17.443v39.242q-18.1,9.377-36.2,9.377-29.865,0-49.944-19.285Q41.585,206.9,41.585,178.1T61.93,129.484q20.345-19.815,49.938-19.821a74.658,74.658,0,0,1,35.94,9.119" transform="translate(414.992 670.514)" fill="#fff"/>
    <path id="Caminho_83" data-name="Caminho 83" d="M225.7,113.452v36.463q-26.695-22.322-55.224-22.329-31.445,0-52.982,22.594-21.67,22.465-21.67,54.966,0,32.1,21.67,54.164T170.6,281.374q16.257,0,27.616-5.28a80.262,80.262,0,0,0,13.142-7.135A155.8,155.8,0,0,0,225.7,258.121v37.129a111.189,111.189,0,0,1-55.489,14.929q-43.737,0-74.652-30.524Q64.777,248.872,64.777,205.4q0-38.967,25.767-69.494,31.71-37.387,82.045-37.387,27.48,0,53.111,14.929" transform="translate(549.393 605.956)" fill="#fff"/>
    <path id="Caminho_84" data-name="Caminho 84" d="M238.65,264.483H151.318L128.6,314.026H95.435L196.37,97.22l97.375,216.806h-33.69ZM226.1,235.549l-30.252-69.365-31.713,69.365Z" transform="translate(727.061 598.405)" fill="#fff"/>
    <path id="Caminho_85" data-name="Caminho 85" d="M132.353,314.93V97.064L281.12,252.7V110.94H311.9V327.352L163.135,172.11V314.93Z" transform="translate(941.009 597.502)" fill="#fff"/>
    <path id="Caminho_86" data-name="Caminho 86" d="M169.953,314.93V97.064L318.719,252.7V110.94H349.5V327.352L200.735,172.11V314.93Z" transform="translate(1158.902 597.502)" fill="#fff"/>
    <path id="Caminho_87" data-name="Caminho 87" d="M69.1,226.691H157.1v-79.8h30.782v204H157.1V255.625H69.1v95.261H38.323v-204H69.1Z" transform="translate(396.087 886.245)" fill="#fff"/>
    <path id="Caminho_88" data-name="Caminho 88" d="M184.076,175.823H102.3v49.013h79.4v28.934H102.3v68.176h81.78V350.88H71.508V146.89H184.076Z" transform="translate(588.398 886.248)" fill="#fff"/>
    <path id="Caminho_89" data-name="Caminho 89" d="M237.779,312.267H150.447L127.724,361.81H94.564L195.5,145,292.874,361.81h-33.69Zm-12.551-28.934-30.252-69.365-31.713,69.365Z" transform="translate(722.013 875.32)" fill="#fff"/>
    <path id="Caminho_90" data-name="Caminho 90" d="M162.265,146.89V321.946h59.981V350.88H131.483V146.89Z" transform="translate(935.962 886.248)" fill="#fff"/>
    <path id="Caminho_91" data-name="Caminho 91" d="M225.713,175.823V350.88H194.931V175.823H148.024V146.89h124.46v28.934Z" transform="translate(1031.823 886.248)" fill="#fff"/>
    <path id="Caminho_92" data-name="Caminho 92" d="M205.149,226.691h87.99v-79.8h30.782v204H293.139V255.625h-87.99v95.261H174.366v-204h30.782Z" transform="translate(1184.48 886.245)" fill="#fff"/>
    <path id="Caminho_93" data-name="Caminho 93" d="M2086.48,930.12c0,513.693-416.427,930.12-930.12,930.12S226.24,1443.813,226.24,930.12,642.674,0,1156.36,0s930.12,416.427,930.12,930.12" transform="translate(1485.096 35)" fill="#fff"/>
    <path id="Caminho_94" data-name="Caminho 94" d="M370.011,99.954V559.483h157.45v75.949H289.2V99.954Z" transform="translate(1849.976 614.249)"/>
    <path id="Caminho_95" data-name="Caminho 95" d="M717.3,534.065H488.054L428.407,664.124H341.354L606.317,95,861.924,664.124H773.485Zm-32.95-75.949L604.931,276.039,521.7,458.115Z" transform="translate(2152.199 585.557)"/>
    <path id="Caminho_96" data-name="Caminho 96" d="M438.265,635.432V99.954h80.461q53.757,0,85.66,8.324,32.26,8.327,54.45,28.091,22.556,20.467,35.722,50.984,13.526,30.874,13.529,62.427,0,57.569-44.046,97.456Q706.7,361.8,731.319,398.214q24.972,36.072,24.972,83.927,0,62.777-44.392,106.127-26.7,26.715-59.995,37.108-36.419,10.06-91.2,10.057ZM519.08,329.9h25.312q45.083,0,66.069-19.944t20.977-58.785q0-37.795-21.5-57.4t-62.427-19.6H519.08Zm0,229.588h49.937q54.786,0,80.455-21.5,27.052-23.239,27.052-58.961,0-34.676-26.012-58.262-25.319-23.239-90.518-23.239H519.08Z" transform="translate(2713.813 614.249)"/>
  </g>
</svg>
